<svg xmlns="http://www.w3.org/2000/svg" xmlns:svg="http://www.w3.org/2000/svg" id="svg8" width="16" height="16" version="1.1" viewBox="0 0 4.233 4.233"><metadata id="metadata5"/><g id="layer1" transform="translate(0,-292.76665)"><rect id="rect878" width="4.233" height="4.233" x="0" y="292.767" fill="#fff" fill-opacity="1" stroke="none" stroke-dasharray=".265 .794" stroke-linecap="round" stroke-linejoin="round" stroke-width=".132"/><rect id="rect926" width="4.233" height="4.233" x="0" y="292.767" fill="red" stroke-dasharray=".265 .794" stroke-linecap="round" stroke-linejoin="round" stroke-width=".132"/><rect id="rect12-3" width="3.175" height="1.852" x=".529" y="294.619" fill="#000" fill-opacity="1" stroke-dasharray=".202 .606" stroke-linecap="round" stroke-linejoin="round" stroke-width=".101" ry=".265"/><path id="path913" fill="#000" stroke-dasharray=".265 .794" stroke-linecap="round" stroke-linejoin="round" stroke-width=".132" d="m 2.1166667,293.29579 a 1.0583332,1.0583332 0 0 0 -1.0583334,1.05833 v 0.79375 h 0.3601848 a 1.0583332,1.0583332 0 0 0 0.6981486,0.26458 1.0583332,1.0583332 0 0 0 0.6981486,-0.26458 H 3.175 v -0.79375 a 1.0583332,1.0583332 0 0 0 -1.0583333,-1.05833 z m 0,0.52916 a 0.52916664,0.52916664 0 0 1 0.5291666,0.52917 v 0.79375 H 1.5875 v -0.79375 a 0.52916664,0.52916664 0 0 1 0.5291667,-0.52917 z"/><rect id="rect871" width="4.498" height=".529" x="-209.449" y="209.482" fill="#000" fill-opacity="1" stroke="none" stroke-dasharray=".615 1.845" stroke-linecap="round" stroke-linejoin="round" stroke-width=".308" transform="rotate(-45)"/><rect id="rect875" width="4.677" height=".529" x="-209.262" y="210.011" fill="red" fill-opacity="1" stroke="none" stroke-dasharray=".615 1.845" stroke-linecap="round" stroke-linejoin="round" stroke-width=".308" ry="0" transform="rotate(-45)"/></g></svg>