<svg xmlns="http://www.w3.org/2000/svg" xmlns:svg="http://www.w3.org/2000/svg" id="svg8" width="16" height="16" version="1.1" viewBox="0 0 4.233 4.233"><metadata id="metadata5"/><g id="layer1" transform="translate(0,-292.76665)"><rect id="rect926" width="4.233" height="4.233" x="0" y="292.767" fill="#0f0" stroke-dasharray=".265 .794" stroke-linecap="round" stroke-linejoin="round" stroke-width=".132"/><rect id="rect12" width="3.175" height="1.852" x=".529" y="294.619" fill="#000" fill-opacity="1" stroke-dasharray=".202 .606" stroke-linecap="round" stroke-linejoin="round" stroke-width=".101" ry=".265"/><path id="path913" fill="#000" stroke-dasharray="1 3" stroke-linecap="round" stroke-linejoin="round" stroke-width=".5" d="M 8 2 A 3.9999996 3.9999996 0 0 0 4 6 L 4 9 L 5.3613281 9 A 3.9999996 3.9999996 0 0 0 8 10 A 3.9999996 3.9999996 0 0 0 10.638672 9 L 12 9 L 12 6 A 3.9999996 3.9999996 0 0 0 8 2 z M 8 4 A 1.9999999 1.9999999 0 0 1 10 6 L 10 9 L 6 9 L 6 6 A 1.9999999 1.9999999 0 0 1 8 4 z" transform="matrix(0.26458333,0,0,0.26458333,0,292.76665)"/></g></svg>